<svg xmlns="http://www.w3.org/2000/svg" viewBox="0 0 15.8 13.63"><defs><style>.cls-1{fill:#1a2947;}</style></defs><title>request</title><g id="Layer_2" data-name="Layer 2"><g id="Layer_1-2" data-name="Layer 1"><path class="cls-1" d="M13.2,7.77a7.64,7.64,0,0,0-1.94-.45,7.64,7.64,0,0,0-1.93.45,3.78,3.78,0,0,0-2.6,3.55.7.7,0,0,0,.45.71,12.65,12.65,0,0,0,4.08.59A12.7,12.7,0,0,0,15.35,12a.71.71,0,0,0,.45-.71A3.79,3.79,0,0,0,13.2,7.77Z"/><ellipse class="cls-1" cx="11.34" cy="4.03" rx="2.48" ry="2.9"/><path class="cls-1" d="M7.68,7.88a9,9,0,0,0-2.3-.54,8.81,8.81,0,0,0-2.29.54A4.5,4.5,0,0,0,0,12.09a.87.87,0,0,0,.53.85,15.28,15.28,0,0,0,4.85.68,15.25,15.25,0,0,0,4.85-.68.87.87,0,0,0,.53-.85A4.49,4.49,0,0,0,7.68,7.88Z"/><ellipse class="cls-1" cx="5.47" cy="3.44" rx="2.94" ry="3.44"/></g></g></svg>