<svg xmlns="http://www.w3.org/2000/svg" viewBox="0 0 13.69 13.69"><defs><style>.cls-1{fill:#1a2947;}</style></defs><title>help</title><g id="Layer_2" data-name="Layer 2"><g id="Layer_1-2" data-name="Layer 1"><path class="cls-1" d="M6.85,0a6.85,6.85,0,1,0,6.84,6.85A6.85,6.85,0,0,0,6.85,0ZM7.4,10.44a.77.77,0,0,1-.19.28.75.75,0,0,1-.28.18,1,1,0,0,1-.35.07,1,1,0,0,1-.35-.07.79.79,0,0,1-.29-.18.92.92,0,0,1-.19-.28,1,1,0,0,1-.06-.34,1,1,0,0,1,.06-.35,1.07,1.07,0,0,1,.19-.28,1,1,0,0,1,.64-.25.84.84,0,0,1,.35.07.75.75,0,0,1,.28.18.87.87,0,0,1,.19.28.81.81,0,0,1,.07.35A.8.8,0,0,1,7.4,10.44Zm1.48-5a1.93,1.93,0,0,1-.3.53,2.4,2.4,0,0,1-.39.39l-.41.31c-.12.09-.23.19-.33.28a.6.6,0,0,0-.17.31l-.14.78h-1L6,7.19a.76.76,0,0,1,.07-.46,1.35,1.35,0,0,1,.28-.36c.12-.1.25-.21.39-.31l.41-.32a1.9,1.9,0,0,0,.31-.39,1,1,0,0,0,.13-.51.72.72,0,0,0-.25-.58,1,1,0,0,0-.66-.21,1.75,1.75,0,0,0-.5.06l-.36.15-.25.14a.32.32,0,0,1-.2.07.34.34,0,0,1-.31-.18l-.4-.63a3.65,3.65,0,0,1,.43-.31,2.54,2.54,0,0,1,.49-.26,3.43,3.43,0,0,1,.57-.17,2.87,2.87,0,0,1,.67-.07A2.72,2.72,0,0,1,7.71,3a2.09,2.09,0,0,1,.69.38,1.86,1.86,0,0,1,.44.6A2,2,0,0,1,9,4.75,2.18,2.18,0,0,1,8.88,5.47Z"/></g></g></svg>